<?xml version="1.0" encoding="UTF-8" standalone="no"?>
<svg
   xmlns:osb="http://www.openswatchbook.org/uri/2009/osb"
   xmlns:dc="http://purl.org/dc/elements/1.1/"
   xmlns:cc="http://creativecommons.org/ns#"
   xmlns:rdf="http://www.w3.org/1999/02/22-rdf-syntax-ns#"
   xmlns:svg="http://www.w3.org/2000/svg"
   xmlns="http://www.w3.org/2000/svg"
   xmlns:sodipodi="http://sodipodi.sourceforge.net/DTD/sodipodi-0.dtd"
   xmlns:inkscape="http://www.inkscape.org/namespaces/inkscape"
   inkscape:version="1.0 (4035a4fb49, 2020-05-01)"
   sodipodi:docname="logo-all-parts.svg"
   id="svg27"
   version="1.1"
   overflow="hidden"
   height="70"
   width="268.18817"
   inkscape:export-filename="C:\Users\Genadi\Pictures\circle-blue-green-logo-white.png"
   inkscape:export-xdpi="2742.8601"
   inkscape:export-ydpi="2742.8601">
  <metadata
     id="metadata31">
    <rdf:RDF>
      <cc:Work
         rdf:about="">
        <dc:format>image/svg+xml</dc:format>
        <dc:type
           rdf:resource="http://purl.org/dc/dcmitype/StillImage" />
        <dc:title></dc:title>
      </cc:Work>
    </rdf:RDF>
  </metadata>
  <sodipodi:namedview
     inkscape:pagecheckerboard="true"
     inkscape:current-layer="svg27"
     inkscape:window-maximized="1"
     inkscape:window-y="-9"
     inkscape:window-x="-9"
     inkscape:cy="35"
     inkscape:cx="134.94409"
     inkscape:zoom="4.1054039"
     showgrid="false"
     id="namedview29"
     inkscape:window-height="1001"
     inkscape:window-width="1920"
     inkscape:pageshadow="2"
     inkscape:pageopacity="0"
     guidetolerance="10"
     gridtolerance="10"
     objecttolerance="10"
     borderopacity="1"
     bordercolor="#666666"
     pagecolor="#ffffff"
     inkscape:document-rotation="0"
     fit-margin-top="0"
     fit-margin-left="0"
     fit-margin-right="0"
     fit-margin-bottom="0" />
  <defs
     id="defs5">
    <linearGradient
       osb:paint="solid"
       id="linearGradient1105">
      <stop
         id="stop1103"
         offset="0"
         style="stop-color:#000000;stop-opacity:1;" />
    </linearGradient>
  </defs>
  <rect
     inkscape:label="background"
     y="0"
     x="0"
     height="70"
     width="70"
     id="rect846"
     style="display:inline;fill:#0057a4;fill-opacity:1;fill-rule:evenodd;stroke-width:0.792293"
     inkscape:export-filename="C:\Users\Genadi\Pictures\g964.png"
     inkscape:export-xdpi="2742.8601"
     inkscape:export-ydpi="2742.8601" />
  <text
     xml:space="preserve"
     style="font-style:normal;font-weight:normal;font-size:40px;line-height:1.25;font-family:sans-serif;display:none;fill:#ffffff;fill-opacity:1;stroke:none"
     x="79.80928"
     y="52.720627"
     id="text850"
     inkscape:label="text"><tspan
       sodipodi:role="line"
       id="tspan848"
       x="0"
       y="0"
       style="font-style:normal;font-variant:normal;font-weight:normal;font-stretch:normal;font-family:'Noto Sans';-inkscape-font-specification:'Noto Sans';fill:#ffffff;fill-opacity:1">LinuxPolls</tspan></text>
  <g
     id="g964"
     inkscape:label="logo-parts"
     style="display:inline;fill:#65e935;fill-opacity:1">
    <rect
       x="13.469648"
       y="25.962568"
       width="7.4425917"
       height="31.896822"
       fill="#71cf4f"
       id="rect9-9"
       style="mix-blend-mode:normal;fill:#65e935;fill-opacity:1;fill-rule:evenodd;stroke-width:1.06323"
       inkscape:label="leftbar" />
    <rect
       style="mix-blend-mode:normal;fill:#65e935;fill-opacity:1;fill-rule:evenodd;stroke-width:1.09594"
       x="31.012901"
       y="39.784523"
       width="7.4425917"
       height="18.074865"
       fill="#71cf4f"
       id="rect11"
       inkscape:label="middlebar" />
    <rect
       style="mix-blend-mode:normal;fill:#65e935;fill-opacity:1;fill-rule:evenodd;stroke-width:1.14843"
       x="49.087765"
       y="31.278706"
       width="7.4425917"
       height="26.580685"
       fill="#71cf4f"
       id="rect13"
       inkscape:label="rightbar" />
    <path
       d="m 11.874807,17.456749 c 0,-2.935571 2.380566,-5.316137 5.316137,-5.316137 2.935571,0 5.316137,2.380566 5.316137,5.316137 0,2.935571 -2.380566,5.316137 -5.316137,5.316137 -2.935571,0 -5.316137,-2.380566 -5.316137,-5.316137 z"
       fill="#71cf4f"
       fill-rule="evenodd"
       id="path15"
       style="display:inline;mix-blend-mode:normal;fill:#65e935;fill-opacity:1;fill-rule:evenodd;stroke-width:1.06323"
       inkscape:label="circleleft" />
    <path
       d="m 29.418059,31.278705 c 0,-2.93557 2.380566,-5.316137 5.316137,-5.316137 2.935571,0 5.316137,2.380567 5.316137,5.316137 0,2.935571 -2.380566,5.316137 -5.316137,5.316137 -2.935571,0 -5.316137,-2.380566 -5.316137,-5.316137 z"
       fill="#71cf4f"
       fill-rule="evenodd"
       id="path17"
       style="mix-blend-mode:normal;fill:#65e935;fill-opacity:1;fill-rule:evenodd;stroke-width:1.06323"
       inkscape:label="middlecircle" />
    <path
       d="m 47.492925,22.772886 c 0,-2.935571 2.380566,-5.316137 5.316137,-5.316137 2.935571,0 5.316137,2.380566 5.316137,5.316137 0,2.935571 -2.380566,5.316137 -5.316137,5.316137 -2.935571,0 -5.316137,-2.380566 -5.316137,-5.316137 z"
       fill="#71cf4f"
       fill-rule="evenodd"
       id="path19"
       style="mix-blend-mode:normal;fill:#65e935;fill-opacity:1;fill-rule:evenodd;stroke-width:1.06323"
       inkscape:label="circleright" />
    <rect
       x="17.529282"
       y="-44.109531"
       width="20.092457"
       height="0.80370033"
       fill="#71cf4f"
       transform="matrix(0.89445659,-0.44715479,-0.44715479,-0.89445659,0,0)"
       id="rect23"
       style="display:inline;mix-blend-mode:normal;fill:#65e935;fill-opacity:1;fill-rule:evenodd;stroke-width:1.06323"
       inkscape:label="connectright" />
    <rect
       id="rect21"
       transform="matrix(0.76395567,0.64526873,0.64526873,-0.76395567,0,0)"
       fill="#71cf4f"
       height="0.80370027"
       width="20.092455"
       y="-2.5511384"
       x="21.375652"
       style="display:inline;mix-blend-mode:normal;fill:#65e935;fill-opacity:1;fill-rule:evenodd;stroke-width:1.06323"
       inkscape:label="connectleft" />
  </g>
  <g
     inkscape:label="text-as-object"
     style="font-style:normal;font-weight:normal;font-size:40px;line-height:1.25;font-family:sans-serif;display:inline;fill:#ffffff;fill-opacity:1;stroke:none"
     id="text845"
     aria-label="LinuxPolls">
    <path
       id="path847"
       style="font-style:normal;font-variant:normal;font-weight:normal;font-stretch:normal;font-family:'Noto Sans';-inkscape-font-specification:'Noto Sans';fill:#ffffff;fill-opacity:1"
       d="M 83.695999,52.720627 V 24.165939 h 3.59375 v 25.351563 h 12.480469 v 3.203125 z" />
    <path
       id="path849"
       style="font-style:normal;font-variant:normal;font-weight:normal;font-stretch:normal;font-family:'Noto Sans';-inkscape-font-specification:'Noto Sans';fill:#ffffff;fill-opacity:1"
       d="m 107.66084,52.720627 h -3.51562 V 31.275314 h 3.51562 z m -3.78906,-27.246094 q 0,-1.171875 0.58594,-1.699219 0.60547,-0.527343 1.48437,-0.527343 0.82032,0 1.42578,0.527343 0.625,0.527344 0.625,1.699219 0,1.152344 -0.625,1.699219 -0.60546,0.546875 -1.42578,0.546875 -0.8789,0 -1.48437,-0.546875 -0.58594,-0.546875 -0.58594,-1.699219 z" />
    <path
       id="path851"
       style="font-style:normal;font-variant:normal;font-weight:normal;font-stretch:normal;font-family:'Noto Sans';-inkscape-font-specification:'Noto Sans';fill:#ffffff;fill-opacity:1"
       d="M 129.06709,52.720627 V 39.009689 q 0,-2.617187 -1.17187,-3.886718 -1.15235,-1.289063 -3.63281,-1.289063 -3.30079,0 -4.80469,1.835938 -1.48438,1.816406 -1.48438,5.9375 v 11.113281 h -3.51562 V 31.275314 h 2.83203 l 0.52734,2.929688 h 0.19532 q 0.99609,-1.582031 2.79296,-2.441406 1.79688,-0.878907 3.96485,-0.878907 3.94531,0 5.85937,1.914063 1.91407,1.914062 1.91407,5.957031 v 13.964844 z" />
    <path
       id="path853"
       style="font-style:normal;font-variant:normal;font-weight:normal;font-stretch:normal;font-family:'Noto Sans';-inkscape-font-specification:'Noto Sans';fill:#ffffff;fill-opacity:1"
       d="m 142.54366,31.275314 v 13.808594 q 0,2.597656 1.15234,3.867188 1.17187,1.25 3.61328,1.25 3.30078,0 4.80469,-1.835938 1.5039,-1.835937 1.5039,-5.917969 V 31.275314 h 3.53516 v 21.445313 h -2.89062 l -0.50782,-2.832031 h -0.17578 q -0.95703,1.542968 -2.71484,2.382812 -1.75781,0.839844 -4.08203,0.839844 -3.86719,0 -5.83985,-1.855469 -1.95312,-1.855469 -1.95312,-5.9375 V 31.275314 Z" />
    <path
       id="path855"
       style="font-style:normal;font-variant:normal;font-weight:normal;font-stretch:normal;font-family:'Noto Sans';-inkscape-font-specification:'Noto Sans';fill:#ffffff;fill-opacity:1"
       d="m 169.06709,41.763596 -7.40234,-10.488282 h 4.00391 l 5.52734,8.085938 5.46875,-8.085938 h 3.96484 l -7.40234,10.488282 7.8125,10.957031 h -4.00391 l -5.83984,-8.554688 -5.91797,8.554688 h -3.96484 z" />
    <path
       id="path857"
       style="font-style:normal;font-variant:normal;font-weight:normal;font-stretch:normal;font-family:'Noto Sans';-inkscape-font-specification:'Noto Sans';fill:#ffffff;fill-opacity:1"
       d="m 203.93037,32.564377 q 0,4.375 -2.98828,6.71875 -2.98828,2.324219 -8.41797,2.324219 h -3.28125 v 11.113281 h -3.59375 V 24.165939 h 7.5586 q 10.72265,0 10.72265,8.398438 z m -14.6875,5.957031 h 2.8711 q 4.25781,0 6.17187,-1.367187 1.91407,-1.386719 1.91407,-4.433594 0,-2.753906 -1.77735,-4.121094 -1.77734,-1.367187 -5.54687,-1.367187 h -3.63282 z" />
    <path
       id="path859"
       style="font-style:normal;font-variant:normal;font-weight:normal;font-stretch:normal;font-family:'Noto Sans';-inkscape-font-specification:'Noto Sans';fill:#ffffff;fill-opacity:1"
       d="m 228.01241,41.958908 q 0,5.253906 -2.65625,8.203125 -2.65625,2.949219 -7.34375,2.949219 -2.91016,0 -5.15625,-1.347656 -2.2461,-1.367188 -3.45704,-3.90625 -1.21093,-2.539063 -1.21093,-5.898438 0,-5.234375 2.61718,-8.144531 2.61719,-2.929688 7.34375,-2.929688 4.53125,0 7.1875,2.988282 2.67579,2.96875 2.67579,8.085937 z m -16.19141,0 q 0,4.042969 1.58203,6.152344 1.60156,2.089844 4.70703,2.089844 3.06641,0 4.66797,-2.089844 1.60156,-2.109375 1.60156,-6.152344 0,-4.042969 -1.62109,-6.074219 -1.60156,-2.050781 -4.70703,-2.050781 -6.23047,0 -6.23047,8.125 z" />
    <path
       id="path861"
       style="font-style:normal;font-variant:normal;font-weight:normal;font-stretch:normal;font-family:'Noto Sans';-inkscape-font-specification:'Noto Sans';fill:#ffffff;fill-opacity:1"
       d="m 237.11397,52.720627 h -3.51563 V 22.330002 h 3.51563 z" />
    <path
       id="path863"
       style="font-style:normal;font-variant:normal;font-weight:normal;font-stretch:normal;font-family:'Noto Sans';-inkscape-font-specification:'Noto Sans';fill:#ffffff;fill-opacity:1"
       d="m 247.42647,52.720627 h -3.51563 V 22.330002 h 3.51563 z" />
    <path
       id="path865"
       style="font-style:normal;font-variant:normal;font-weight:normal;font-stretch:normal;font-family:'Noto Sans';-inkscape-font-specification:'Noto Sans';display:inline;fill:#ffffff;fill-opacity:1"
       d="m 268.18819,46.802658 q 0,3.007813 -2.2461,4.667969 -2.24609,1.640625 -6.30859,1.640625 -4.23828,0 -6.73828,-1.347656 v -3.203125 q 3.53515,1.71875 6.8164,1.71875 2.65625,0 3.86719,-0.859375 1.21094,-0.859375 1.21094,-2.304688 0,-1.269531 -1.17188,-2.148437 -1.15234,-0.878907 -4.12109,-2.011719 -3.02734,-1.171875 -4.25781,-1.992188 -1.23047,-0.839843 -1.81641,-1.875 -0.5664,-1.035156 -0.5664,-2.519531 0,-2.636719 2.14843,-4.160156 2.14844,-1.523438 5.89844,-1.523438 3.65234,0 6.83594,1.445313 l -1.19141,2.792969 q -3.26172,-1.367188 -5.8789,-1.367188 -2.1875,0 -3.32032,0.703125 -1.13281,0.683594 -1.13281,1.894531 0,1.171875 0.97656,1.953125 0.97657,0.761719 4.55078,2.128907 2.67579,0.996093 3.94532,1.855468 1.28906,0.859375 1.89453,1.933594 0.60547,1.074219 0.60547,2.578125 z" />
  </g>
</svg>
