<?xml version="1.0" encoding="UTF-8" standalone="no"?>
<svg
   xmlns:osb="http://www.openswatchbook.org/uri/2009/osb"
   xmlns:dc="http://purl.org/dc/elements/1.1/"
   xmlns:cc="http://creativecommons.org/ns#"
   xmlns:rdf="http://www.w3.org/1999/02/22-rdf-syntax-ns#"
   xmlns:svg="http://www.w3.org/2000/svg"
   xmlns="http://www.w3.org/2000/svg"
   xmlns:sodipodi="http://sodipodi.sourceforge.net/DTD/sodipodi-0.dtd"
   xmlns:inkscape="http://www.inkscape.org/namespaces/inkscape"
   inkscape:version="1.0 (4035a4fb49, 2020-05-01)"
   sodipodi:docname="logo-with-text.svg"
   id="svg27"
   version="1.1"
   overflow="hidden"
   height="45.71875"
   width="249.71219"
   inkscape:export-filename="C:\Users\Genadi\Pictures\circle-blue-green-logo-white.png"
   inkscape:export-xdpi="2742.8601"
   inkscape:export-ydpi="2742.8601">
  <metadata
     id="metadata31">
    <rdf:RDF>
      <cc:Work
         rdf:about="">
        <dc:format>image/svg+xml</dc:format>
        <dc:type
           rdf:resource="http://purl.org/dc/dcmitype/StillImage" />
        <dc:title></dc:title>
      </cc:Work>
    </rdf:RDF>
  </metadata>
  <sodipodi:namedview
     inkscape:pagecheckerboard="true"
     inkscape:current-layer="svg27"
     inkscape:window-maximized="1"
     inkscape:window-y="-9"
     inkscape:window-x="-9"
     inkscape:cy="22.859388"
     inkscape:cx="123.06928"
     inkscape:zoom="4.1054039"
     showgrid="false"
     id="namedview29"
     inkscape:window-height="1001"
     inkscape:window-width="1920"
     inkscape:pageshadow="2"
     inkscape:pageopacity="0"
     guidetolerance="10"
     gridtolerance="10"
     objecttolerance="10"
     borderopacity="1"
     bordercolor="#666666"
     pagecolor="#ffffff"
     inkscape:document-rotation="0"
     fit-margin-top="0"
     fit-margin-left="0"
     fit-margin-right="0"
     fit-margin-bottom="0" />
  <defs
     id="defs5">
    <linearGradient
       osb:paint="solid"
       id="linearGradient1105">
      <stop
         id="stop1103"
         offset="0"
         style="stop-color:#000000;stop-opacity:1;" />
    </linearGradient>
  </defs>
  <path
     d="M 5.316406,0 C 2.380835,0 0,2.3808353 0,5.3164062 c 0,2.935571 2.380835,5.3164058 5.316406,5.3164058 1.517198,0 2.877033,-0.644316 3.845703,-1.664062 l 8.996094,7.597656 0.175781,-0.207031 c -0.498041,0.8093 -0.791015,1.759508 -0.791015,2.779297 0,2.935571 2.380835,5.316406 5.316406,5.316406 2.935571,0 5.316406,-2.380835 5.316406,-5.316406 0,-0.64139 -0.119881,-1.254859 -0.328125,-1.824219 l 8.390625,-4.193359 c 0.893047,1.681056 2.659411,2.828125 4.695313,2.828125 2.935571,0 5.316406,-2.380836 5.316406,-5.316407 0,-2.9355705 -2.380835,-5.3164058 -5.316406,-5.3164058 -2.935571,0 -5.316406,2.3808353 -5.316406,5.3164058 0,0.613463 0.109519,1.19972 0.300781,1.748047 l -8.398438,4.199219 c -0.904187,-1.644059 -2.651676,-2.757812 -4.660156,-2.757812 -1.723426,0 -3.239495,0.833862 -4.210937,2.105468 L 9.675781,8.3496094 C 10.275996,7.4887145 10.632812,6.4452377 10.632812,5.3164062 10.632812,2.3808352 8.251977,0 5.316406,0 Z M 1.595703,13.822266 V 45.71875 H 9.037109 V 13.822266 Z m 35.617188,5.316406 V 45.71875 H 44.65625 V 19.138672 Z M 19.138672,27.644531 V 45.71875 h 7.441406 V 27.644531 Z"
     inkscape:label="logo"
     style="mix-blend-mode:normal;fill:#65e935;fill-opacity:1;fill-rule:evenodd;stroke-width:1.06323"
     id="rect9-9" />
  <path
     d="m 215.12235,10.189453 v 30.390625 h 3.51562 V 10.189453 Z m 10.3125,0 v 30.390625 h 3.51562 V 10.189453 Z M 87.466094,11.107422 c -0.585933,0 -1.080728,0.175782 -1.484375,0.527344 -0.390626,0.351562 -0.585937,0.917968 -0.585937,1.699218 0,0.76823 0.195311,1.334636 0.585937,1.699219 0.403647,0.364583 0.898442,0.546875 1.484375,0.546875 0.54688,0 1.022141,-0.182292 1.425782,-0.546875 0.416666,-0.364583 0.624999,-0.930989 0.625,-1.699219 -10e-7,-0.78125 -0.208334,-1.347656 -0.625,-1.699218 -0.403641,-0.351562 -0.878902,-0.527344 -1.425782,-0.527344 z M 65.22,12.025391 V 40.580078 H 81.294219 V 37.376953 H 68.81375 V 12.025391 Z m 101.95313,0 v 28.554687 h 3.59375 V 29.466797 h 3.28125 c 3.61979,0 6.42578,-0.77474 8.41797,-2.324219 1.99218,-1.5625 2.98828,-3.802083 2.98828,-6.71875 0,-5.598959 -3.57423,-8.398437 -10.72266,-8.398437 z m 3.59375,3.066406 h 3.63281 c 2.51302,0 4.36198,0.455729 5.54688,1.367187 1.18489,0.911459 1.77734,2.285157 1.77734,4.121094 0,2.03125 -0.63802,3.509115 -1.91406,4.433594 -1.27604,0.911458 -3.33334,1.367187 -6.17188,1.367187 h -2.87109 z m -64.47266,3.652344 c -1.44531,0 -2.76692,0.292968 -3.96484,0.878906 -1.19792,0.572917 -2.12891,1.386719 -2.79297,2.441406 H 99.3411 l -0.52735,-2.929687 h -2.83203 v 21.445312 h 3.51563 V 29.466797 c 0,-2.747396 0.49478,-4.726563 1.48437,-5.9375 1.0026,-1.223959 2.60416,-1.835938 4.80469,-1.835938 1.65364,0 2.86458,0.429688 3.63281,1.289063 0.78125,0.846354 1.17188,2.141927 1.17188,3.886719 v 13.710937 h 3.47656 V 26.615234 c 0,-2.695312 -0.63802,-4.68099 -1.91406,-5.957031 -1.27604,-1.276042 -3.22917,-1.914062 -5.85938,-1.914062 z m 93.37891,0 c -3.15104,0 -5.59896,0.976562 -7.34375,2.929687 -1.74479,1.940104 -2.61719,4.654948 -2.61719,8.144531 0,2.239584 0.40365,4.205729 1.21094,5.898438 0.80729,1.692708 1.95963,2.994791 3.45703,3.90625 1.49739,0.898437 3.21614,1.347656 5.15625,1.347656 3.125,0 5.57292,-0.983073 7.34375,-2.949219 1.77083,-1.966146 2.65625,-4.700521 2.65625,-8.203125 0,-3.411458 -0.89192,-6.10677 -2.67578,-8.085937 -1.77084,-1.992188 -4.16667,-2.988281 -7.1875,-2.988281 z m 42.7539,0 c -2.5,0 -4.46614,0.507812 -5.89843,1.523437 -1.43229,1.015625 -2.14844,2.402344 -2.14844,4.160156 0,0.989584 0.18881,1.829428 0.56641,2.519532 0.39062,0.690104 0.99609,1.315104 1.8164,1.875 0.82031,0.546875 2.23959,1.210937 4.25781,1.992187 1.97917,0.755208 3.35287,1.425781 4.1211,2.011719 0.78125,0.585937 1.17187,1.302083 1.17187,2.148437 0,0.963542 -0.40364,1.731771 -1.21094,2.304688 -0.80729,0.572917 -2.09635,0.859375 -3.86718,0.859375 -2.1875,0 -4.45964,-0.572917 -6.81641,-1.71875 v 3.203125 c 1.66667,0.898437 3.91276,1.347656 6.73828,1.347656 2.70834,0 4.8112,-0.546875 6.3086,-1.640625 1.4974,-1.106771 2.24609,-2.66276 2.24609,-4.667969 0,-1.002604 -0.20182,-1.861979 -0.60547,-2.578125 -0.40365,-0.716146 -1.03516,-1.360677 -1.89453,-1.933593 -0.84635,-0.572917 -2.16145,-1.191407 -3.94531,-1.855469 -2.38281,-0.911459 -3.89974,-1.621094 -4.55078,-2.128906 -0.65104,-0.520834 -0.97657,-1.171875 -0.97657,-1.953125 0,-0.807292 0.37761,-1.438802 1.13282,-1.894532 0.75521,-0.46875 1.86198,-0.703125 3.32031,-0.703125 1.74479,0 3.70442,0.455729 5.87891,1.367188 l 1.1914,-2.792969 c -2.1224,-0.963542 -4.40104,-1.445312 -6.83594,-1.445312 z M 85.669219,19.134766 v 21.445312 h 3.515625 V 19.134766 Z m 34.843751,0 v 14.042968 c 0,2.721354 0.65105,4.700521 1.95313,5.9375 1.3151,1.23698 3.26171,1.855469 5.83984,1.855469 1.54948,0 2.91016,-0.279948 4.08203,-0.839844 1.17187,-0.559896 2.07682,-1.354167 2.71484,-2.382812 h 0.17579 l 0.50781,2.832031 h 2.89062 V 19.134766 h -3.53515 v 11.171875 c 0,2.721354 -0.50131,4.69401 -1.50391,5.917968 -1.00261,1.223959 -2.60417,1.835938 -4.80469,1.835938 -1.6276,0 -2.83203,-0.416667 -3.61328,-1.25 -0.76822,-0.846355 -1.15234,-2.135417 -1.15234,-3.867188 V 19.134766 Z m 22.67578,0 7.40235,10.488281 -7.75391,10.957031 h 3.96484 l 5.91797,-8.554687 5.83985,8.554687 h 4.0039 l -7.8125,-10.957031 7.40235,-10.488281 h -3.96485 l -5.46875,8.085937 -5.52734,-8.085937 z m 56.38672,2.558593 c 2.07031,0 3.63933,0.683594 4.70703,2.050782 1.08073,1.354166 1.6211,3.378906 1.6211,6.074218 0,2.695313 -0.53386,4.746094 -1.60157,6.152344 -1.0677,1.393229 -2.62369,2.089844 -4.66796,2.089844 -2.07032,0 -3.63933,-0.696615 -4.70704,-2.089844 -1.05468,-1.40625 -1.58203,-3.457031 -1.58203,-6.152344 0,-5.416666 2.07682,-8.125 6.23047,-8.125 z"
     style="font-style:normal;font-variant:normal;font-weight:normal;font-stretch:normal;font-size:40px;line-height:1.25;font-family:'Noto Sans';-inkscape-font-specification:'Noto Sans';fill:#ffffff;fill-opacity:1;stroke:none"
     id="path847"
     inkscape:label="text" />
</svg>
