<?xml version="1.0" encoding="UTF-8" standalone="no"?>
<svg
   xmlns:osb="http://www.openswatchbook.org/uri/2009/osb"
   xmlns:dc="http://purl.org/dc/elements/1.1/"
   xmlns:cc="http://creativecommons.org/ns#"
   xmlns:rdf="http://www.w3.org/1999/02/22-rdf-syntax-ns#"
   xmlns:svg="http://www.w3.org/2000/svg"
   xmlns="http://www.w3.org/2000/svg"
   xmlns:sodipodi="http://sodipodi.sourceforge.net/DTD/sodipodi-0.dtd"
   xmlns:inkscape="http://www.inkscape.org/namespaces/inkscape"
   inkscape:export-ydpi="2742.8601"
   inkscape:export-xdpi="2742.8601"
   inkscape:export-filename="C:\Users\Genadi\Pictures\circle-blue-green-logo-white.png"
   width="70"
   height="70"
   overflow="hidden"
   version="1.1"
   id="svg27"
   sodipodi:docname="logo-square.svg"
   inkscape:version="1.0 (4035a4fb49, 2020-05-01)">
  <metadata
     id="metadata31">
    <rdf:RDF>
      <cc:Work
         rdf:about="">
        <dc:format>image/svg+xml</dc:format>
        <dc:type
           rdf:resource="http://purl.org/dc/dcmitype/StillImage" />
        <dc:title></dc:title>
      </cc:Work>
    </rdf:RDF>
  </metadata>
  <sodipodi:namedview
     fit-margin-bottom="0"
     fit-margin-right="0"
     fit-margin-left="0"
     fit-margin-top="0"
     inkscape:document-rotation="0"
     pagecolor="#ffffff"
     bordercolor="#666666"
     borderopacity="1"
     objecttolerance="10"
     gridtolerance="10"
     guidetolerance="10"
     inkscape:pageopacity="0"
     inkscape:pageshadow="2"
     inkscape:window-width="1920"
     inkscape:window-height="1001"
     id="namedview29"
     showgrid="false"
     inkscape:zoom="4.1054039"
     inkscape:cx="134.94409"
     inkscape:cy="35"
     inkscape:window-x="-9"
     inkscape:window-y="-9"
     inkscape:window-maximized="1"
     inkscape:current-layer="svg27"
     inkscape:pagecheckerboard="true" />
  <defs
     id="defs5">
    <linearGradient
       id="linearGradient1105"
       osb:paint="solid">
      <stop
         style="stop-color:#000000;stop-opacity:1;"
         offset="0"
         id="stop1103" />
    </linearGradient>
  </defs>
  <rect
     inkscape:export-ydpi="2742.8601"
     inkscape:export-xdpi="2742.8601"
     inkscape:export-filename="C:\Users\Genadi\Pictures\g964.png"
     style="display:inline;fill:#0057a4;fill-opacity:1;fill-rule:evenodd;stroke-width:0.792293"
     id="rect846"
     width="70"
     height="70"
     x="0"
     y="0"
     inkscape:label="background" />
  <path
     id="rect9-9"
     style="mix-blend-mode:normal;fill:#65e935;fill-opacity:1;fill-rule:evenodd;stroke-width:1.06323"
     inkscape:label="logo"
     d="m 17.191406,12.140625 c -2.935571,0 -5.316406,2.380835 -5.316406,5.316406 0,2.935571 2.380835,5.316407 5.316406,5.316407 1.517198,0 2.877033,-0.644317 3.845703,-1.664063 L 30.033203,28.707031 30.208984,28.5 c -0.498041,0.8093 -0.791015,1.759508 -0.791015,2.779297 0,2.935571 2.380835,5.316406 5.316406,5.316406 2.935571,0 5.316406,-2.380835 5.316406,-5.316406 0,-0.64139 -0.119881,-1.254859 -0.328125,-1.824219 l 8.390625,-4.193359 c 0.893047,1.681056 2.659411,2.828125 4.695313,2.828125 2.935571,0 5.316406,-2.380836 5.316406,-5.316406 0,-2.935572 -2.380835,-5.316407 -5.316406,-5.316407 -2.935571,0 -5.316406,2.380836 -5.316406,5.316407 0,0.613462 0.109519,1.199719 0.300781,1.748046 l -8.398438,4.199219 c -0.904187,-1.644059 -2.651676,-2.757812 -4.660156,-2.757812 -1.723426,0 -3.239495,0.833862 -4.210937,2.105468 l -8.972657,-7.578125 c 0.600215,-0.860895 0.957031,-1.904371 0.957031,-3.033203 0,-2.935571 -2.380835,-5.316406 -5.316406,-5.316406 z M 13.46875,25.962891 v 31.896484 h 7.443359 V 25.962891 Z m 35.619141,5.316406 V 57.859375 H 56.53125 V 31.279297 Z m -18.074219,8.505859 v 18.074219 h 7.441406 V 39.785156 Z" />
</svg>
